<svg width="700pt" height="700pt" viewBox="125 40 450 480" xmlns="http://www.w3.org/2000/svg"><path d="M350 512.79a232.798 232.798 0 0 0 232.794-232.794c0-61.74-24.527-120.95-68.184-164.61S411.74 47.202 350 47.202s-120.95 24.527-164.61 68.184-68.184 102.87-68.184 164.61a233.076 233.076 0 0 0 232.796 232.796zM186.2 148.17a229.482 229.482 0 0 0 41.555 32.535 310.533 310.533 0 0 0-15.121 88.09h-72.801a209.317 209.317 0 0 1 46.367-120.62zm373.91 120.62h-72.801a310.139 310.139 0 0 0-15.234-88.535 230.339 230.339 0 0 0 41.273-32.648 209.331 209.331 0 0 1 46.762 121.18zm-46.707 143.53a229.967 229.967 0 0 0-41.27-32.648 310.274 310.274 0 0 0 15.23-88.48h72.801a209.341 209.341 0 0 1-46.762 121.13zm-68.992-242.09a209.266 209.266 0 0 1-83.156 22.402V74.022a193.598 193.598 0 0 1 83.156 96.207zm-83.215 44.578a231.735 231.735 0 0 0 91-23.465 289.551 289.551 0 0 1 12.77 77.449h-103.77zm103.77 76.383a289.518 289.518 0 0 1-12.77 77.449 231.75 231.75 0 0 0-91-23.465v-53.984zm-103.77 194.77v-118.38a209.326 209.326 0 0 1 83.215 22.398 193.571 193.571 0 0 1-83.215 95.984zm-22.398-140.79a234.327 234.327 0 0 0-91.113 23.129 289.843 289.843 0 0 1-12.656-77.113h103.77zm0 22.398v118.39a193.661 193.661 0 0 1-83.328-96.488 211.803 211.803 0 0 1 83.328-21.895zm125.16 33.602a208.038 208.038 0 0 1 34.383 28 210.432 210.432 0 0 1-94.137 54.098 223.09 223.09 0 0 0 59.754-82.266zm0-242.09v.004a223.08 223.08 0 0 0-59.754-82.38 210.44 210.44 0 0 1 94.191 54.267 207.825 207.825 0 0 1-34.438 28zm-125.16-85.062v118.38a211.835 211.835 0 0 1-83.328-21.84 193.703 193.703 0 0 1 83.328-96.543zm0 140.79v53.984h-103.77a289.81 289.81 0 0 1 12.656-77.168 234.422 234.422 0 0 0 91.113 23.184zm-126.17 76.383a310.507 310.507 0 0 0 15.062 88.031 229.782 229.782 0 0 0-41.551 32.539 209.327 209.327 0 0 1-46.258-120.57zm-11.535 137.31a207.285 207.285 0 0 1 34.719-28 223.25 223.25 0 0 0 59.977 82.77 210.408 210.408 0 0 1-94.695-54.77zm94.695-351.79a223.263 223.263 0 0 0-59.922 82.656 207.07 207.07 0 0 1-34.719-28 210.463 210.463 0 0 1 94.641-54.656z" fill="#fff"/></svg>